<?xml version="1.0" encoding="utf-8"?>
<!-- Generator: Adobe Illustrator 16.0.2, SVG Export Plug-In . SVG Version: 6.00 Build 0)  -->
<!DOCTYPE svg PUBLIC "-//W3C//DTD SVG 1.1//EN" "http://www.w3.org/Graphics/SVG/1.1/DTD/svg11.dtd">
<svg version="1.1" id="Layer_1" xmlns="http://www.w3.org/2000/svg" xmlns:xlink="http://www.w3.org/1999/xlink" x="0px" y="0px"
	 width="259px" height="173px" viewBox="0 0 259 173" enable-background="new 0 0 259 173" xml:space="preserve">
<g>
	<path fill="#E02521" d="M22.83,86.688c0-28.047,58.534-50.871,131.475-51.612c-15.588-21-40.45-34.59-68.459-34.59
		c-47.202,0-85.467,38.595-85.467,86.203c0,47.609,38.265,86.203,85.467,86.203c28.009,0,52.872-13.59,68.46-34.592
		C81.364,137.559,22.83,114.734,22.83,86.688z"/>
	<g>
		<g>
			<path d="M62.601,56.344c2.43,0,3.645,0.777,3.645,2.331c-0.198,3.109-0.349,5.863-0.449,8.261c-0.101,2.4-0.15,4.985-0.15,7.754
				c0,2.704,0.049,5.288,0.15,7.754c0.1,2.467,0.25,5.289,0.449,8.462c0,1.488-1.215,2.23-3.645,2.23
				c-2.43,0-3.611-0.742-3.543-2.23c0.134-3.174,0.232-5.961,0.3-8.361c0.065-2.398,0.098-5.017,0.098-7.856
				c0-2.838-0.033-5.438-0.098-7.804c-0.068-2.365-0.167-5.103-0.3-8.211C58.99,57.121,60.171,56.344,62.601,56.344z"/>
			<path d="M74.134,56.449c2.197-0.169,3.728,0.559,4.594,2.183c1.596,2.909,3.678,6.207,6.241,9.895
				c2.561,3.688,4.874,7.02,6.938,9.996c0.134-3.856,0.117-7.594-0.049-11.214c-0.167-3.621-0.349-6.445-0.548-8.475
				c-0.202-1.556,1.031-2.333,3.693-2.333s3.893,0.778,3.693,2.333c-0.265,2.03-0.466,4.466-0.599,7.308
				c-0.134,2.842-0.199,5.548-0.199,8.119c0,2.843,0.065,5.667,0.199,8.474c0.132,2.809,0.333,5.397,0.599,7.766
				c0.199,1.488-0.798,2.385-2.995,2.689c-2.197,0.303-3.66-0.256-4.392-1.676c-1.798-3.449-3.995-7.392-6.59-11.823
				c-2.597-4.432-4.86-7.866-6.791-10.302c-0.068,3.452-0.084,7.394-0.051,11.825c0.034,4.432,0.249,7.662,0.651,9.691
				c0.332,1.49-0.883,2.232-3.645,2.232c-2.764,0-4.011-0.742-3.744-2.232c0.398-1.961,0.63-4.566,0.699-7.814
				c0.065-3.247,0.1-6.191,0.1-8.83c0-2.841-0.05-5.581-0.15-8.219c-0.101-2.639-0.316-4.973-0.648-7.004
				C70.938,57.482,71.937,56.619,74.134,56.449z"/>
			<path d="M106.284,56.449c2.198-0.169,3.728,0.559,4.595,2.183c1.596,2.909,3.677,6.207,6.241,9.895
				c2.562,3.688,4.875,7.02,6.939,9.996c0.133-3.856,0.117-7.594-0.05-11.214c-0.167-3.621-0.349-6.445-0.548-8.475
				c-0.201-1.556,1.031-2.333,3.694-2.333c2.662,0,3.893,0.778,3.693,2.333c-0.267,2.03-0.467,4.466-0.6,7.308
				c-0.134,2.842-0.199,5.548-0.199,8.119c0,2.843,0.065,5.667,0.199,8.474c0.133,2.809,0.333,5.397,0.6,7.766
				c0.199,1.488-0.799,2.385-2.996,2.689c-2.197,0.303-3.66-0.256-4.392-1.676c-1.799-3.449-3.995-7.392-6.59-11.823
				c-2.597-4.432-4.859-7.866-6.79-10.302c-0.068,3.452-0.084,7.394-0.051,11.825c0.034,4.432,0.25,7.662,0.65,9.691
				c0.332,1.49-0.882,2.232-3.644,2.232c-2.764,0-4.011-0.742-3.745-2.232c0.399-1.961,0.632-4.566,0.7-7.814
				c0.065-3.247,0.099-6.191,0.099-8.83c0-2.841-0.049-5.581-0.149-8.219c-0.102-2.639-0.317-4.973-0.649-7.004
				C103.09,57.482,104.088,56.619,106.284,56.449z"/>
			<path d="M162,61.911c2.531,3.917,3.795,8.173,3.795,12.768c0,5.067-1.332,9.477-3.994,13.226
				c-2.662,3.75-6.457,5.623-11.383,5.623c-5.658,0-9.668-1.959-12.031-5.877c-2.363-3.918-3.544-8.243-3.544-12.972
				c0-4.594,1.197-8.85,3.595-12.768c2.395-3.919,6.391-5.878,11.98-5.878C155.609,56.032,159.469,57.992,162,61.911z
				 M143.977,65.845c-1.431,2.5-2.146,5.441-2.146,8.821c0,3.65,0.782,6.693,2.346,9.126c1.564,2.435,3.646,3.651,6.241,3.651
				c2.729,0,4.843-1.166,6.34-3.498c1.498-2.333,2.248-5.426,2.248-9.279c0-3.584-0.75-6.575-2.248-8.975
				c-1.497-2.398-3.61-3.6-6.34-3.6C147.556,62.091,145.409,63.343,143.977,65.845z"/>
			<path d="M172.982,56.449c2.197-0.169,3.729,0.559,4.594,2.183c1.596,2.909,3.678,6.207,6.24,9.895
				c2.563,3.688,4.875,7.02,6.941,9.996c0.132-3.856,0.115-7.594-0.051-11.214c-0.167-3.621-0.35-6.445-0.549-8.475
				c-0.201-1.556,1.031-2.333,3.694-2.333c2.661,0,3.892,0.778,3.692,2.333c-0.266,2.03-0.465,4.466-0.6,7.308
				c-0.132,2.842-0.197,5.548-0.197,8.119c0,2.843,0.065,5.667,0.197,8.474c0.135,2.809,0.334,5.397,0.6,7.766
				c0.199,1.488-0.797,2.385-2.995,2.689c-2.198,0.303-3.66-0.256-4.392-1.676c-1.799-3.449-3.995-7.392-6.59-11.823
				c-2.598-4.432-4.861-7.866-6.791-10.302c-0.066,3.452-0.083,7.394-0.051,11.825c0.035,4.432,0.25,7.662,0.65,9.691
				c0.332,1.49-0.883,2.232-3.645,2.232s-4.01-0.742-3.744-2.232c0.398-1.961,0.631-4.566,0.699-7.814
				c0.065-3.247,0.1-6.191,0.1-8.83c0-2.841-0.051-5.581-0.15-8.219c-0.101-2.639-0.315-4.973-0.648-7.004
				C169.787,57.482,170.785,56.619,172.982,56.449z"/>
			<path d="M218.663,62.446c-1.23-0.102-2.546-0.152-3.943-0.152c-1.266,0-2.464,0.016-3.595,0.05
				c-1.131,0.034-1.862,0.152-2.196,0.354c-0.199,0.474-0.299,1.759-0.299,3.854c0,2.095,0.1,3.516,0.299,4.258
				c0.8,0.07,1.732,0.153,2.796,0.254c1.066,0.103,1.998,0.152,2.795,0.152c0.732,0,1.631-0.016,2.697-0.05
				c1.064-0.034,2.229-0.152,3.494-0.356c1.531-0.202,2.297,0.812,2.297,3.044c0,2.231-0.766,3.244-2.297,3.04
				c-1.199-0.133-2.329-0.268-3.395-0.403c-1.064-0.136-1.997-0.204-2.797-0.204c-0.797,0-1.745,0.068-2.846,0.204
				c-1.098,0.135-2.014,0.202-2.745,0.202c-0.199,0.676-0.299,2.298-0.299,4.867c0,2.57,0.1,4.259,0.299,5.07
				c0.334,0.203,1.116,0.355,2.347,0.457c1.232,0.102,2.38,0.151,3.444,0.151c1.132,0,2.479-0.05,4.044-0.151
				s3.08-0.186,4.544-0.254c1.53-0.203,2.296,0.846,2.296,3.145s-0.766,3.414-2.296,3.346c-1.464-0.203-2.997-0.354-4.594-0.455
				c-1.597-0.104-2.996-0.152-4.194-0.152c-1.265,0-2.479,0.033-3.643,0.102c-1.166,0.066-2.547,0.168-4.145,0.303
				c-1.398,0.203-2.529-0.066-3.395-0.811c-0.867-0.744-1.197-1.959-0.998-3.65c0.199-1.421,0.347-3.668,0.447-6.744
				c0.102-3.076,0.15-5.426,0.15-7.047c0-1.555-0.049-3.921-0.15-7.099c-0.101-3.176-0.248-5.474-0.447-6.895
				c-0.068-1.622,0.331-2.788,1.195-3.498c0.867-0.71,2.131-0.964,3.796-0.761c1.197,0.068,2.43,0.152,3.694,0.252
				c1.264,0.103,2.496,0.153,3.694,0.153c1.2,0,2.463-0.051,3.794-0.153c1.332-0.101,2.729-0.184,4.194-0.252
				c1.53-0.203,2.298,0.811,2.298,3.043c0,2.23-0.768,3.312-2.298,3.244C221.243,62.701,219.895,62.548,218.663,62.446z"/>
			<path d="M236.785,56.987c2.197,0.169,4.428,0.253,6.691,0.253c2.197,0,4.377-0.084,6.539-0.253
				c2.165-0.17,4.244-0.288,6.24-0.356c1.531-0.134,2.297,1.016,2.297,3.448c0,2.435-0.766,3.515-2.297,3.246
				c-1.465-0.203-2.995-0.372-4.591-0.507c-1.599-0.135-2.997-0.034-4.193,0.304c-0.401,0-0.702,1.556-0.901,4.666
				c-0.199,3.109-0.297,5.949-0.297,8.517c0,2.502,0.098,4.953,0.297,7.352c0.199,2.4,0.434,4.816,0.699,7.25
				c0.201,1.488-1.063,2.23-3.795,2.23c-2.729,0-3.992-0.742-3.793-2.23c0.332-2.434,0.548-4.85,0.649-7.25
				c0.101-2.399,0.149-4.85,0.149-7.352c0-2.568-0.066-5.408-0.199-8.517c-0.134-3.11-0.4-4.666-0.799-4.666
				c-1.465-0.202-2.896-0.27-4.294-0.203c-1.398,0.067-2.962,0.203-4.69,0.406c-1.467,0.269-2.199-0.812-2.199-3.246
				c0-2.432,0.732-3.582,2.199-3.448C232.492,56.699,234.589,56.817,236.785,56.987z"/>
		</g>
		<g>
			<path d="M61.439,100.389c-0.15-0.063-0.468-0.092-0.95-0.092c-0.197,0.016-0.346-0.055-0.452-0.211
				c-0.106-0.141-0.158-0.32-0.158-0.539s0.052-0.398,0.158-0.539c0.105-0.154,0.271-0.219,0.497-0.186
				c1.307,0.047,2.901,0.068,4.781,0.068c2.14,0,3.722-0.029,4.749-0.094c0.452-0.029,0.731,0.221,0.837,0.75
				c0.075,0.328,0.083,0.943,0.023,1.85c-0.015,0.406-0.023,0.709-0.023,0.912c0,0.33,0.016,0.619,0.044,0.867
				c0.031,0.25-0.037,0.461-0.203,0.633c-0.135,0.156-0.317,0.24-0.542,0.258c-0.211,0.016-0.401-0.041-0.566-0.164
				c-0.166-0.158-0.248-0.359-0.248-0.611l0.022-1.076c0.029-0.67,0.029-1.123,0-1.355c-0.061-0.391-0.203-0.588-0.429-0.588h-5.789
				v5.9h2.758c0.227,0,0.362-0.125,0.407-0.375c0.03-0.154,0.03-0.467,0-0.936v-0.352c-0.016-0.201,0.06-0.359,0.226-0.469
				c0.166-0.092,0.361-0.139,0.588-0.139c0.227,0,0.415,0.055,0.565,0.164c0.181,0.109,0.264,0.256,0.249,0.443l-0.022,0.445
				c-0.061,0.955-0.091,1.695-0.091,2.219c-0.016,0.861,0.007,1.645,0.067,2.346c0.015,0.188-0.052,0.346-0.203,0.469
				c-0.151,0.109-0.339,0.174-0.565,0.188c-0.227,0.016-0.423-0.031-0.588-0.141c-0.166-0.141-0.248-0.328-0.248-0.563v-0.889
				c0.015-0.373,0.015-0.625,0-0.75c-0.031-0.201-0.106-0.303-0.226-0.303h-2.917v6.152c0,0.23,0.271,0.365,0.814,0.395
				c0.301,0.018,0.851,0.002,1.65-0.047l0.43-0.021c0.165-0.016,0.301,0.055,0.407,0.213c0.105,0.158,0.166,0.34,0.18,0.543
				c0.016,0.221-0.038,0.396-0.157,0.521c-0.122,0.174-0.295,0.252-0.521,0.236c-1.222-0.047-2.162-0.078-2.827-0.094
				c-1.046-0.014-1.925,0.016-2.633,0.094c-0.181,0.016-0.332-0.055-0.451-0.213c-0.107-0.143-0.167-0.324-0.183-0.545
				c-0.029-0.236-0.007-0.426,0.069-0.566c0.075-0.158,0.196-0.221,0.361-0.189l0.407,0.021c0.347,0.049,0.58,0.057,0.701,0.025
				c0.211-0.047,0.317-0.188,0.317-0.424v-12.729C61.756,100.641,61.65,100.469,61.439,100.389z"/>
			<path d="M75.807,100.508c0.919-1.344,2.373-2.016,4.362-2.016c1.944,0,3.383,0.672,4.318,2.016
				c0.981,1.422,1.471,3.664,1.471,6.727c0,3.018-0.49,5.219-1.471,6.611c-0.935,1.328-2.374,1.992-4.318,1.992
				c-1.99,0-3.443-0.664-4.362-1.992c-0.957-1.375-1.435-3.578-1.435-6.611C74.373,104.158,74.851,101.914,75.807,100.508z
				 M76.847,112.656c0.722,1.217,1.831,1.822,3.322,1.822c1.477,0,2.57-0.605,3.279-1.822c0.693-1.184,1.039-2.99,1.039-5.422
				c0-2.475-0.346-4.314-1.039-5.516c-0.709-1.244-1.802-1.867-3.279-1.867c-1.492,0-2.6,0.623-3.322,1.867
				c-0.694,1.217-1.04,3.055-1.04,5.516C75.807,109.65,76.153,111.457,76.847,112.656z"/>
			<path d="M90.578,100.316c-0.18-0.033-0.468-0.041-0.859-0.025c-0.196,0.016-0.346-0.053-0.451-0.207
				c-0.091-0.139-0.136-0.316-0.136-0.531c0-0.217,0.052-0.395,0.158-0.533c0.12-0.154,0.278-0.215,0.475-0.184
				c0.753,0.061,1.567,0.092,2.439,0.092c0.721,0,1.78-0.023,3.179-0.068c1.759,0,2.955,0.529,3.587,1.588
				c0.405,0.67,0.608,1.723,0.608,3.156c0,1.465-0.226,2.563-0.676,3.295c-0.375,0.592-0.96,1.027-1.755,1.309
				c0.901,0.5,1.582,1.395,2.048,2.688c0.315,0.842,0.51,1.77,0.587,2.781c0.015,0.234,0.157,0.367,0.43,0.398
				c0.241,0.029,0.593-0.01,1.062-0.117c0.211-0.063,0.377-0.008,0.498,0.166c0.106,0.158,0.159,0.357,0.159,0.594
				s-0.053,0.428-0.159,0.57c-0.121,0.174-0.271,0.236-0.452,0.189c-0.407-0.031-0.867-0.049-1.38-0.049
				c-0.541,0.018-0.864,0.049-0.97,0.096c-0.3,0.016-0.496-0.047-0.583-0.188c-0.062-0.094-0.091-0.232-0.091-0.422
				c0-1.545-0.172-2.787-0.519-3.725c-0.42-1.217-1.147-2.125-2.183-2.719h-3.151v5.184c0,0.217,0.136,0.342,0.408,0.373
				c0.149,0.016,0.451-0.01,0.904-0.07h0.068c0.209-0.047,0.391,0.023,0.542,0.213c0.121,0.158,0.19,0.357,0.204,0.596
				c0,0.252-0.06,0.449-0.181,0.592c-0.15,0.158-0.362,0.213-0.633,0.166c-0.8-0.061-1.503-0.094-2.11-0.094
				c-0.605,0-1.308,0.033-2.106,0.094c-0.15,0.016-0.287-0.063-0.407-0.234c-0.106-0.156-0.167-0.344-0.181-0.563
				c-0.016-0.25,0.014-0.443,0.09-0.586c0.105-0.17,0.271-0.234,0.498-0.186c0.332,0.061,0.641,0.076,0.927,0.047
				c0.361-0.047,0.543-0.174,0.543-0.375V100.76C91.008,100.525,90.864,100.379,90.578,100.316z M92.442,107.113h3.109
				c0.812,0,1.427-0.25,1.849-0.752c0.495-0.576,0.743-1.5,0.743-2.764c0-1.141-0.173-1.969-0.518-2.484
				c-0.391-0.563-1.067-0.844-2.028-0.844h-3.154V107.113z"/>
			<path d="M114.36,100.508c0.919-1.344,2.373-2.016,4.363-2.016c1.943,0,3.384,0.672,4.317,2.016
				c0.981,1.422,1.472,3.664,1.472,6.727c0,3.018-0.49,5.219-1.472,6.611c-0.933,1.328-2.374,1.992-4.317,1.992
				c-1.99,0-3.444-0.664-4.363-1.992c-0.956-1.375-1.434-3.578-1.434-6.611C112.926,104.158,113.404,101.914,114.36,100.508z
				 M115.4,112.656c0.723,1.217,1.83,1.822,3.323,1.822c1.477,0,2.57-0.605,3.278-1.822c0.693-1.184,1.039-2.99,1.039-5.422
				c0-2.475-0.346-4.314-1.039-5.516c-0.708-1.244-1.801-1.867-3.278-1.867c-1.493,0-2.6,0.623-3.323,1.867
				c-0.693,1.217-1.04,3.055-1.04,5.516C114.36,109.65,114.707,111.457,115.4,112.656z"/>
			<path d="M129.186,100.4c-0.183-0.094-0.521-0.117-1.018-0.07c-0.198,0.016-0.348-0.055-0.454-0.209
				c-0.09-0.141-0.127-0.32-0.112-0.539c0-0.232,0.054-0.42,0.159-0.561c0.134-0.156,0.308-0.217,0.519-0.186
				c0.678,0.061,1.295,0.092,1.849,0.092c0.537,0,1.205-0.023,2.005-0.068c0.332-0.08,0.597-0.041,0.792,0.117
				c0.166,0.125,0.264,0.313,0.293,0.564c0.016,0.221-0.029,0.418-0.135,0.592c-0.105,0.172-0.242,0.234-0.407,0.188l-0.43-0.023
				c-0.437,0-0.738,0.018-0.905,0.047c-0.254,0.049-0.384,0.172-0.384,0.373v9.67c0,1.385,0.278,2.414,0.837,3.082
				c0.529,0.639,1.336,0.957,2.423,0.957c1.146,0,1.977-0.334,2.489-1.002c0.483-0.641,0.725-1.652,0.725-3.041v-9.654
				c0-0.219-0.158-0.35-0.475-0.398c-0.286-0.061-0.664-0.047-1.131,0.047c-0.211,0.031-0.369-0.037-0.475-0.209
				c-0.105-0.156-0.158-0.344-0.158-0.563c0-0.234,0.053-0.42,0.158-0.561c0.12-0.172,0.279-0.232,0.475-0.186
				c0.693,0.061,1.356,0.092,1.986,0.092c0.732,0,1.377-0.031,1.936-0.092c0.271-0.063,0.498-0.023,0.678,0.117
				c0.15,0.125,0.242,0.307,0.271,0.541c0.031,0.221,0,0.41-0.09,0.566c-0.091,0.174-0.219,0.252-0.385,0.236l-0.452-0.023
				c-0.347,0-0.573,0.008-0.679,0.023c-0.15,0.047-0.225,0.164-0.225,0.35v9.809c0,1.932-0.423,3.316-1.266,4.156
				c-0.737,0.732-1.872,1.098-3.406,1.098c-1.43,0-2.514-0.334-3.25-1.004c-0.948-0.842-1.422-2.268-1.422-4.277v-9.396
				C129.523,100.729,129.41,100.51,129.186,100.4z"/>
			<path d="M144.551,100.316c-0.18-0.033-0.467-0.041-0.857-0.025c-0.196,0.016-0.347-0.053-0.453-0.207
				c-0.09-0.139-0.135-0.316-0.135-0.531c0-0.217,0.053-0.395,0.157-0.533c0.121-0.154,0.278-0.215,0.477-0.184
				c0.753,0.061,1.565,0.092,2.438,0.092c0.721,0,1.781-0.023,3.18-0.068c1.758,0,2.953,0.529,3.585,1.588
				c0.407,0.67,0.61,1.723,0.61,3.156c0,1.465-0.227,2.563-0.676,3.295c-0.376,0.592-0.961,1.027-1.756,1.309
				c0.9,0.5,1.582,1.395,2.049,2.688c0.313,0.842,0.51,1.77,0.585,2.781c0.015,0.234,0.159,0.367,0.431,0.398
				c0.24,0.029,0.595-0.01,1.063-0.117c0.211-0.063,0.377-0.008,0.498,0.166c0.104,0.158,0.157,0.357,0.157,0.594
				s-0.053,0.428-0.157,0.57c-0.121,0.174-0.273,0.236-0.453,0.189c-0.408-0.031-0.867-0.049-1.379-0.049
				c-0.542,0.018-0.864,0.049-0.971,0.096c-0.299,0.016-0.495-0.047-0.586-0.188c-0.059-0.094-0.09-0.232-0.09-0.422
				c0-1.545-0.172-2.787-0.516-3.725c-0.422-1.217-1.149-2.125-2.184-2.719h-3.152v5.184c0,0.217,0.137,0.342,0.407,0.373
				c0.151,0.016,0.452-0.01,0.905-0.07h0.068c0.209-0.047,0.39,0.023,0.542,0.213c0.12,0.158,0.188,0.357,0.203,0.596
				c0,0.252-0.06,0.449-0.181,0.592c-0.15,0.158-0.361,0.213-0.633,0.166c-0.799-0.061-1.502-0.094-2.109-0.094
				c-0.605,0-1.308,0.033-2.107,0.094c-0.15,0.016-0.287-0.063-0.406-0.234c-0.105-0.156-0.168-0.344-0.181-0.563
				c-0.016-0.25,0.013-0.443,0.091-0.586c0.104-0.17,0.27-0.234,0.496-0.186c0.332,0.061,0.641,0.076,0.926,0.047
				c0.363-0.047,0.545-0.174,0.545-0.375V100.76C144.982,100.525,144.838,100.379,144.551,100.316z M146.416,107.113h3.109
				c0.813,0,1.428-0.25,1.849-0.752c0.495-0.576,0.744-1.5,0.744-2.764c0-1.141-0.174-1.969-0.519-2.484
				c-0.393-0.563-1.066-0.844-2.027-0.844h-3.156V107.113z"/>
			<path d="M165.855,100.133c-0.091-0.141-0.137-0.328-0.137-0.564c0.017-0.232,0.077-0.42,0.183-0.561
				c0.134-0.154,0.308-0.211,0.519-0.164c0.77,0.063,1.606,0.096,2.512,0.096c0.859,0.016,1.861,0,3.01-0.049
				c2.097-0.047,3.582,0.656,4.457,2.107c0.753,1.25,1.131,3.223,1.131,5.924c0,3.246-0.529,5.549-1.586,6.906
				c-0.848,1.096-2.108,1.643-3.785,1.643c-1.104-0.061-2.109-0.094-3.014-0.094c-0.793,0-1.678,0.033-2.656,0.094
				c-0.24,0.031-0.43-0.029-0.564-0.184c-0.121-0.123-0.182-0.301-0.182-0.531c0-0.201,0.045-0.377,0.136-0.533
				c0.106-0.154,0.233-0.209,0.384-0.162c0.529,0.047,0.883,0.047,1.063,0c0.258-0.047,0.385-0.201,0.385-0.467v-12.734
				c0-0.266-0.121-0.439-0.361-0.516c-0.15-0.047-0.468-0.072-0.95-0.072l-0.091,0.023
				C166.111,100.344,165.961,100.289,165.855,100.133z M169.145,114.061h2.807c1.374,0,2.393-0.521,3.057-1.566
				c0.725-1.141,1.088-3.006,1.088-5.596c0-2.404-0.331-4.137-0.998-5.199c-0.574-0.936-1.434-1.404-2.578-1.404h-3.375V114.061z"/>
			<path d="M182.156,100.316c-0.182-0.033-0.469-0.041-0.859-0.025c-0.197,0.016-0.347-0.053-0.452-0.207
				c-0.093-0.139-0.136-0.316-0.136-0.531c0-0.217,0.053-0.395,0.158-0.533c0.119-0.154,0.279-0.215,0.475-0.184
				c0.753,0.061,1.566,0.092,2.439,0.092c0.721,0,1.779-0.023,3.18-0.068c1.76,0,2.954,0.529,3.586,1.588
				c0.405,0.67,0.608,1.723,0.608,3.156c0,1.465-0.226,2.563-0.674,3.295c-0.376,0.592-0.962,1.027-1.757,1.309
				c0.898,0.5,1.582,1.395,2.049,2.688c0.314,0.842,0.51,1.77,0.586,2.781c0.016,0.234,0.157,0.367,0.43,0.398
				c0.24,0.029,0.596-0.01,1.063-0.117c0.211-0.063,0.376-0.008,0.499,0.166c0.104,0.158,0.157,0.357,0.157,0.594
				s-0.054,0.428-0.157,0.57c-0.123,0.174-0.274,0.236-0.452,0.189c-0.408-0.031-0.869-0.049-1.382-0.049
				c-0.54,0.018-0.863,0.049-0.969,0.096c-0.301,0.016-0.495-0.047-0.585-0.188c-0.062-0.094-0.092-0.232-0.092-0.422
				c0-1.545-0.171-2.787-0.518-3.725c-0.42-1.217-1.146-2.125-2.184-2.719h-3.15v5.184c0,0.217,0.136,0.342,0.408,0.373
				c0.15,0.016,0.449-0.01,0.904-0.07h0.068c0.209-0.047,0.392,0.023,0.543,0.213c0.119,0.158,0.188,0.357,0.201,0.596
				c0,0.252-0.059,0.449-0.18,0.592c-0.15,0.158-0.361,0.213-0.633,0.166c-0.801-0.061-1.502-0.094-2.107-0.094
				c-0.607,0-1.311,0.033-2.109,0.094c-0.15,0.016-0.285-0.063-0.406-0.234c-0.106-0.156-0.166-0.344-0.183-0.563
				c-0.013-0.25,0.017-0.443,0.091-0.586c0.106-0.17,0.272-0.234,0.498-0.186c0.33,0.061,0.642,0.076,0.928,0.047
				c0.363-0.047,0.543-0.174,0.543-0.375V100.76C182.586,100.525,182.442,100.379,182.156,100.316z M184.02,107.113h3.109
				c0.812,0,1.428-0.25,1.849-0.752c0.496-0.576,0.743-1.5,0.743-2.764c0-1.141-0.173-1.969-0.518-2.484
				c-0.392-0.563-1.066-0.844-2.029-0.844h-3.154V107.113z"/>
			<path d="M197.313,100.389c-0.136-0.076-0.405-0.117-0.814-0.117l-0.136,0.025c-0.195,0.016-0.338-0.055-0.429-0.211
				c-0.091-0.141-0.128-0.32-0.114-0.539c0.016-0.219,0.082-0.398,0.205-0.539c0.119-0.172,0.279-0.24,0.474-0.211
				c0.738,0.094,2.097,0.143,4.073,0.143c1.641,0,3.324-0.025,5.041-0.072c0.726-0.045,1.168,0.023,1.334,0.211
				c0.105,0.109,0.121,0.344,0.047,0.703c-0.121,0.639-0.181,1.281-0.181,1.918c-0.017,0.58,0.015,1.156,0.09,1.734
				c0.015,0.25-0.061,0.459-0.227,0.633c-0.134,0.156-0.315,0.248-0.542,0.279c-0.242,0.031-0.445-0.016-0.61-0.139
				c-0.183-0.125-0.28-0.305-0.295-0.541c-0.016-0.107-0.022-0.256-0.022-0.443c0.016-0.109,0.029-0.305,0.045-0.584
				c0.061-0.688,0.084-1.172,0.066-1.455c-0.029-0.514-0.149-0.811-0.359-0.887h-5.813v5.875h2.783c0.119,0,0.188-0.18,0.203-0.539
				c0-0.201-0.016-0.529-0.047-0.982l-0.021-0.422c0-0.17,0.09-0.297,0.271-0.375c0.164-0.078,0.369-0.109,0.609-0.092
				c0.242,0.016,0.432,0.078,0.566,0.188c0.165,0.109,0.227,0.258,0.181,0.443c-0.077,0.859-0.12,1.674-0.136,2.445
				c0,0.898,0.043,1.715,0.136,2.449c0.015,0.297-0.054,0.539-0.204,0.725c-0.12,0.156-0.285,0.242-0.498,0.258
				c-0.194,0.031-0.377-0.008-0.543-0.115c-0.164-0.111-0.256-0.25-0.271-0.424c-0.029-0.123-0.044-0.281-0.044-0.467
				c-0.016-0.111-0.016-0.297,0-0.563c0-0.391-0.008-0.664-0.025-0.82c-0.028-0.232-0.09-0.35-0.178-0.35h-2.783v6.529h6.129
				c0.18,0,0.272-0.279,0.272-0.842c0-0.328-0.046-0.881-0.137-1.662l-0.022-0.352c-0.029-0.234,0.036-0.422,0.203-0.563
				c0.152-0.123,0.338-0.186,0.564-0.186c0.242,0,0.438,0.063,0.588,0.186c0.18,0.125,0.265,0.305,0.25,0.539
				c-0.031,0.266-0.038,0.594-0.023,0.984c0.016,0.217,0.038,0.555,0.068,1.006c0.074,0.797,0.098,1.328,0.068,1.594
				c-0.063,0.471-0.25,0.705-0.564,0.705c-1.855-0.047-3.711-0.061-5.564-0.047c-1.989,0-3.432,0.033-4.32,0.096
				c-0.256,0.029-0.46-0.047-0.609-0.234c-0.137-0.141-0.205-0.326-0.205-0.561c-0.014-0.234,0.028-0.43,0.137-0.586
				c0.104-0.152,0.247-0.201,0.43-0.139c0.498,0.092,0.828,0.061,0.994-0.094c0.182-0.141,0.271-0.443,0.271-0.912v-11.855
				C197.676,100.748,197.555,100.5,197.313,100.389z"/>
			<path d="M222.918,113.92c0.211,0.141,0.633,0.188,1.268,0.141c0.15-0.063,0.287-0.014,0.406,0.141
				c0.105,0.145,0.166,0.324,0.181,0.545c0.017,0.219-0.03,0.4-0.136,0.541c-0.105,0.174-0.256,0.252-0.451,0.236
				c-0.815-0.061-1.6-0.1-2.353-0.117c-0.829,0-1.605,0.039-2.329,0.117c-0.271,0.031-0.481-0.031-0.633-0.188
				c-0.15-0.143-0.234-0.322-0.249-0.543c-0.017-0.221,0.03-0.402,0.136-0.543c0.137-0.158,0.316-0.219,0.543-0.189
				c0.497,0.018,0.875-0.029,1.131-0.139c0.301-0.139,0.421-0.363,0.361-0.674l-0.995-3.574h-4.817l-0.971,3.355
				c-0.137,0.404-0.098,0.691,0.113,0.863c0.164,0.109,0.451,0.162,0.857,0.162c0.242-0.031,0.445,0.033,0.612,0.188
				c0.136,0.141,0.218,0.311,0.249,0.514c0.015,0.217-0.031,0.395-0.137,0.535c-0.105,0.154-0.264,0.232-0.474,0.232
				c-0.815-0.061-1.577-0.094-2.284-0.094c-0.709,0-1.402,0.033-2.082,0.094c-0.18,0.016-0.322-0.063-0.428-0.236
				c-0.091-0.141-0.137-0.313-0.137-0.518c-0.016-0.221,0.016-0.395,0.091-0.52c0.091-0.158,0.21-0.219,0.362-0.189
				c0.543,0,0.911-0.039,1.108-0.117c0.196-0.094,0.354-0.287,0.474-0.586l3.688-12.477c0.104-0.42,0.021-0.678-0.25-0.771
				c-0.197-0.08-0.775-0.117-1.741-0.117l-0.384,0.023c-0.242,0.031-0.438-0.031-0.59-0.188c-0.135-0.125-0.211-0.291-0.225-0.492
				c-0.029-0.203,0.022-0.375,0.159-0.514c0.149-0.158,0.366-0.219,0.655-0.189c0.588,0.031,1.16,0.047,1.719,0.047
				c0.315,0,0.707,0,1.176,0h0.52c0.436,0,0.769,0.117,0.995,0.352c0.12,0.141,0.225,0.375,0.317,0.703l4.045,13.273
				C222.572,113.508,222.737,113.813,222.918,113.92z M215.254,108.314h4.137l-2.08-7.023L215.254,108.314z"/>
			<path d="M228.846,100.334c-0.074-0.047-0.248-0.063-0.52-0.047l-0.338,0.021c-0.213,0.018-0.371-0.053-0.477-0.209
				c-0.105-0.141-0.157-0.313-0.157-0.516c0-0.217,0.052-0.396,0.157-0.539c0.121-0.154,0.295-0.219,0.521-0.186
				c0.527,0.047,0.986,0.07,1.378,0.07c0.408,0,0.756-0.023,1.042-0.07c0.334-0.078,0.565-0.086,0.699-0.023
				c0.077,0.047,0.152,0.164,0.229,0.352l0.089,0.188l2.669,9.809c0.031,0.219,0.076,0.326,0.137,0.326s0.099-0.107,0.115-0.326
				l2.577-9.6l0.091-0.281c0.075-0.217,0.149-0.357,0.226-0.422c0.136-0.076,0.386-0.084,0.746-0.021
				c0.378,0.047,0.761,0.07,1.153,0.07c0.393,0.016,0.921,0,1.584-0.049c0.167-0.029,0.31,0.039,0.43,0.213
				c0.121,0.156,0.182,0.342,0.182,0.561c0.014,0.219-0.047,0.391-0.182,0.516c-0.137,0.156-0.348,0.203-0.632,0.139
				c-0.378-0.061-0.643-0.066-0.794-0.021c-0.18,0.049-0.27,0.18-0.27,0.396v12.971c0,0.25,0.134,0.383,0.406,0.398
				c0.181,0.016,0.498-0.023,0.95-0.117c0.21-0.047,0.385,0.016,0.521,0.188c0.135,0.141,0.202,0.328,0.202,0.563
				c0.016,0.232-0.036,0.428-0.157,0.584c-0.137,0.172-0.324,0.252-0.565,0.234c-0.692-0.047-1.45-0.07-2.269-0.07
				c-0.922,0-1.676,0.023-2.265,0.07c-0.24,0.018-0.429-0.063-0.565-0.234c-0.119-0.141-0.189-0.326-0.202-0.563
				c-0.017-0.217,0.03-0.404,0.136-0.561c0.12-0.156,0.293-0.217,0.52-0.188h0.09c0.71,0.078,1.153,0.109,1.336,0.094
				c0.284-0.031,0.428-0.141,0.428-0.328v-12.713l-2.982,10.91c-0.135,0.469-0.428,0.711-0.881,0.727
				c-0.451,0-0.738-0.242-0.859-0.727l-2.891-10.91v12.338c0,0.33,0.15,0.531,0.452,0.609c0.228,0.063,0.634,0.072,1.22,0.023
				c0.182-0.031,0.332,0.039,0.453,0.211c0.121,0.156,0.188,0.344,0.205,0.563c0.014,0.232-0.031,0.42-0.139,0.563
				c-0.118,0.172-0.284,0.248-0.497,0.232c-0.66-0.078-1.386-0.109-2.17-0.094c-0.755,0-1.485,0.039-2.194,0.119
				c-0.197,0.014-0.338-0.072-0.429-0.258c-0.091-0.156-0.129-0.354-0.112-0.588c0-0.248,0.051-0.443,0.156-0.584
				c0.106-0.141,0.242-0.172,0.408-0.094c0.438,0.016,0.723-0.008,0.859-0.07c0.211-0.078,0.316-0.281,0.316-0.609v-12.641
				C228.996,100.514,228.951,100.381,228.846,100.334z"/>
			<g>
				<path stroke="#000000" stroke-width="0.5" stroke-miterlimit="10" d="M254.669,110.682c0,1.467-0.518,2.625-1.554,3.479
					c-0.928,0.764-2.051,1.146-3.373,1.146c-1.691,0-3.044-0.609-4.057-1.826v0.639c0,0.498-0.162,0.748-0.486,0.748
					s-0.486-0.25-0.486-0.748v-3.092c0-0.506,0.162-0.76,0.486-0.76c0.302,0,0.463,0.227,0.486,0.68
					c0.047,1.041,0.529,1.861,1.45,2.467c0.772,0.516,1.641,0.773,2.606,0.773c1.035,0,1.924-0.285,2.666-0.854
					c0.857-0.658,1.287-1.555,1.287-2.691c0-1.229-0.537-2.113-1.611-2.654c-0.379-0.195-1.151-0.404-2.318-0.625
					c-1.391-0.27-2.418-0.637-3.083-1.107c-0.981-0.684-1.472-1.701-1.472-3.053c0-1.324,0.467-2.391,1.402-3.199
					c0.842-0.727,1.857-1.092,3.048-1.092c1.36,0,2.53,0.492,3.513,1.479v-0.373c0-0.496,0.162-0.746,0.486-0.746
					s0.486,0.25,0.486,0.746v2.852c0,0.498-0.162,0.748-0.486,0.748c-0.302,0-0.463-0.227-0.486-0.68
					c-0.047-0.906-0.453-1.637-1.218-2.186c-0.672-0.48-1.425-0.721-2.259-0.721c-0.921,0-1.713,0.264-2.377,0.785
					c-0.758,0.598-1.135,1.4-1.135,2.414c0,0.896,0.322,1.594,0.973,2.092c0.525,0.41,1.438,0.738,2.734,0.986
					c1.33,0.25,2.241,0.502,2.736,0.76C253.988,107.771,254.669,108.975,254.669,110.682z"/>
			</g>
		</g>
	</g>
</g>
</svg>
